. 
 
http://www.torrenting.com          :     Once & For all ;)


               www . Torrenting . Com 

(((((((((((((= Enjoy No RAR releases =))))))))))))))))))))


...................................NFO:....................................

.[IMG]http://i1134.photobucket.com/albums/m620/chevyman781/images-475.jpg[/IMG]

 
http://www.imdb.com/title/tt1645074/

Plot
The plan: Kidnap your wife's lover. Take him to a remote warehouse. Hurt him a little. Scare him a lot. Keep your hands clean - hire a detective for the dirty work. Simple? There's no such thing as simple. 



General
Complete name                            : C:UsersrootDesktopFour.2011.DVDRip.XviD.AC3-GBR.avi
Format                                   : AVI
Format/Info                              : Audio Video Interleave
File size                                : 885 MiB
Duration                                 : 1h 24mn
Overall bit rate                         : 1 459 Kbps
Writing application                      : VirtualDubMod 1.5.10.2 (build 2540/release)
Writing library                          : VirtualDubMod build 2540/release

Video
ID                                       : 0
Format                                   : MPEG-4 Visual
Format profile                           : Advanced Simple@L5
Format settings, BVOP                    : 1
Format settings, QPel                    : No
Format settings, GMC                     : No warppoints
Format settings, Matrix                  : Default (H.263)
Muxing mode                              : Packed bitstream
Codec ID                                 : XVID
Codec ID/Hint                            : XviD
Duration                                 : 1h 24mn
Bit rate                                 : 1 001 Kbps
Width                                    : 720 pixels
Height                                   : 304 pixels
Display aspect ratio                     : 2.35:1
Frame rate                               : 25.000 fps
Color space                              : YUV
Chroma subsampling                       : 4:2:0
Bit depth                                : 8 bits
Scan type                                : Progressive
Compression mode                         : Lossy
Bits/(Pixel*Frame)                       : 0.183
Stream size                              : 607 MiB (69%)
Writing library                          : XviD 1.2.1 (UTC 2008-12-04)

Audio
ID                                       : 1
Format                                   : AC-3
Format/Info                              : Audio Coding 3
Mode extension                           : CM (complete main)
Codec ID                                 : 2000
Duration                                 : 1h 24mn
Bit rate mode                            : Constant
Bit rate                                 : 448 Kbps
Channel(s)                               : 6 channels
Channel positions                        : Front: L C R, Side: L R, LFE
Sampling rate                            : 48.0 KHz
Bit depth                                : 16 bits
Compression mode                         : Lossy
Stream size                              : 272 MiB (31%)
Alignment                                : Split accross interleaves
Interleave, duration                     : 40 ms (1.00 video frame)
Interleave, preload duration             : 500 ms



Source Four Retail DVDR  (2011)    Legend-Rg-thanks

[IMG]http://i.imgur.com/CO9PS.png[/IMG]
[IMG]http://i.imgur.com/85k74.png[/IMG]
[IMG]http://i.imgur.com/vtinA.png[/IMG]
[IMG]http://i.imgur.com/4RszR.png[/IMG]